<?xml version="1.0" encoding="UTF-8"?>
<svg version="1.1" xmlns="http://www.w3.org/2000/svg" width="797" height="318">
<path d="M0 0 C11.55 0 23.1 0 35 0 C39.5 11.25 39.5 11.25 41.01464844 16.00048828 C41.35931152 17.07532471 41.70397461 18.15016113 42.05908203 19.25756836 C42.40567871 20.35077393 42.75227539 21.44397949 43.109375 22.5703125 C43.6046167 24.11803345 43.6046167 24.11803345 44.10986328 25.69702148 C45.32721002 29.50508151 46.53824633 33.31515653 47.75 37.125 C50.4725 45.66375 53.195 54.2025 56 63 C56.33 42.21 56.66 21.42 57 0 C68.88 0 80.76 0 93 0 C93 52.47 93 104.94 93 159 C80.46 159 67.92 159 55 159 C53.06833984 152.44705078 53.06833984 152.44705078 51.09765625 145.76171875 C50.28195928 142.9954255 49.46623118 140.22914152 48.65039062 137.46289062 C47.35524491 133.07146036 46.06021508 128.67999615 44.76586914 124.28833008 C43.72242624 120.74799497 42.67846883 117.20781196 41.63415337 113.66773415 C41.23566773 112.31659164 40.83736803 110.96539429 40.43925667 109.61414146 C39.88195197 107.72267804 39.32392694 105.83142691 38.76586914 103.94018555 C38.44832169 102.86318893 38.13077423 101.78619232 37.80360413 100.67655945 C37.23268895 98.7750157 36.62783858 96.88351573 36 95 C35.67 116.12 35.34 137.24 35 159 C23.45 159 11.9 159 0 159 C0 106.53 0 54.06 0 0 Z " fill="#000000" transform="translate(543,4)"/>
<path d="M0 0 C13.86 0 27.72 0 42 0 C42.029729 5.62494507 42.029729 5.62494507 42.06005859 11.36352539 C42.12696261 23.75282606 42.2045033 36.14204101 42.28752708 48.53124332 C42.337605 56.0428623 42.38404838 63.55447062 42.421875 71.06616211 C42.45486186 77.61492061 42.49472987 84.16359528 42.54279006 90.71226114 C42.56798866 94.17830331 42.58978933 97.64429036 42.60334396 101.11039925 C42.61862103 104.98393785 42.6492637 108.8572737 42.68115234 112.73071289 C42.68331253 113.87438828 42.68547272 115.01806366 42.68769836 116.19639587 C42.74714554 121.84846319 43.08685327 126.66472434 45 132 C46.65 132 48.3 132 50 132 C51.64585064 128.38018 52.25492922 125.54442579 52.2784729 121.57731628 C52.28963638 120.5018454 52.30079987 119.42637451 52.31230164 118.3183136 C52.31446182 117.14874619 52.31662201 115.97917877 52.31884766 114.77416992 C52.33391609 112.91501953 52.33391609 112.91501953 52.34928894 111.01831055 C52.37485251 107.62818241 52.39172484 104.23822108 52.40471697 100.84803557 C52.42036722 97.30190649 52.44715139 93.75586181 52.4727478 90.20979309 C52.5195021 83.4986656 52.55626238 76.78752216 52.58942068 70.07631522 C52.62766576 62.43421269 52.67706966 54.79219499 52.72740483 47.15016401 C52.8306749 31.43349784 52.91847825 15.71679631 53 0 C66.86 0 80.72 0 95 0 C95.06788178 16.35150156 95.12307731 32.7028817 95.15543652 49.05448532 C95.17086492 56.64786598 95.19187678 64.24115247 95.22631836 71.83447266 C95.25634473 78.45756671 95.27560422 85.08059252 95.28226548 91.70375276 C95.28615549 95.20637356 95.29521198 98.70879923 95.31719017 102.21135712 C95.34160231 106.13410428 95.34196156 110.05666553 95.34057617 113.97949219 C95.351362 115.12389267 95.36214783 116.26829315 95.3732605 117.44737244 C95.32239434 130.83113338 92.35857381 140.77358456 83.41015625 150.77734375 C72.1352028 161.61122323 57.01524057 161.44058507 42.47265625 161.27734375 C35.3527922 161.07263875 29.48360388 160.11096688 23 157 C21.66001953 156.36384766 21.66001953 156.36384766 20.29296875 155.71484375 C11.13357093 150.78497296 5.15569525 143.95106731 1.69140625 134.1640625 C-0.20306816 125.49443383 -0.14286534 116.56987831 -0.11352539 107.7355957 C-0.11367142 106.56356094 -0.11381744 105.39152618 -0.1139679 104.18397522 C-0.1132767 100.34789109 -0.10552173 96.5118568 -0.09765625 92.67578125 C-0.09578925 90.00107237 -0.09431742 87.32636617 -0.09336853 84.6516571 C-0.09027513 78.35505601 -0.08208889 72.05847253 -0.07201904 65.76187915 C-0.06079568 58.58643051 -0.05533185 51.41098098 -0.05032361 44.23552573 C-0.03990436 29.49034029 -0.02158397 14.74517371 0 0 Z " fill="#000000" transform="translate(108,4)"/>
<path d="M0 0 C73.23611111 0 73.23611111 0 81.90234375 7.6875 C91.64414683 17.90300598 92.19679754 29.82967888 92.25 43.25 C92.270625 44.53519531 92.29125 45.82039063 92.3125 47.14453125 C92.34733783 55.636252 91.57785413 62.35986256 87.4375 69.8125 C83.80407836 73.07326301 79.57588278 74.43686447 75 76 C75.65226562 76.25652344 76.30453125 76.51304688 76.9765625 76.77734375 C83.92330018 79.82038371 87.56618654 83.23374027 91 90 C92.11817376 93.35452129 92.1202587 95.86418264 92.11352539 99.39916992 C92.11367142 100.04334366 92.11381744 100.6875174 92.1139679 101.35121155 C92.11327195 103.47766502 92.10549448 105.6040306 92.09765625 107.73046875 C92.09579094 109.20591687 92.09436757 110.68136561 92.09336853 112.15681458 C92.08955226 116.03825595 92.07972956 119.91965985 92.06866455 123.80108643 C92.05663178 128.45919775 92.05204395 133.11732161 92.04621124 137.77544403 C92.03651734 144.85032208 92.01735458 151.92511791 92 159 C79.13 159 66.26 159 53 159 C52.95101562 154.35421875 52.90203125 149.7084375 52.8515625 144.921875 C52.81617493 141.97784286 52.78021431 139.03384009 52.7421875 136.08984375 C52.68189104 131.41752334 52.62371206 126.74524401 52.578125 122.07275391 C52.54123683 118.30547664 52.49486748 114.53842424 52.44193649 110.77133942 C52.42341127 109.33448483 52.40829637 107.89758207 52.39665604 106.46065521 C52.37976235 104.44730677 52.34959317 102.43408299 52.31884766 100.42089844 C52.30552399 99.27506287 52.29220032 98.12922729 52.2784729 96.94866943 C51.99330162 93.11267676 51.99330162 93.11267676 50 90 C47.36 89.34 44.72 88.68 42 88 C42 111.43 42 134.86 42 159 C28.14 159 14.28 159 0 159 C0 106.53 0 54.06 0 0 Z M42 28 C42 38.89 42 49.78 42 61 C48.63019987 61.64715023 48.63019987 61.64715023 52 59 C53.56841077 54.2947677 53.30839195 49.55399567 53.375 44.625 C53.41238281 43.5834375 53.44976562 42.541875 53.48828125 41.46875 C53.56177011 35.25287879 53.56177011 35.25287879 50.8515625 29.7734375 C47.7105022 27.47188448 47.7105022 27.47188448 42 28 Z " fill="#000000" transform="translate(435,4)"/>
<path d="M0 0 C73.23611111 0 73.23611111 0 81.90234375 7.6875 C91.64414683 17.90300598 92.19679754 29.82967888 92.25 43.25 C92.270625 44.53519531 92.29125 45.82039063 92.3125 47.14453125 C92.34733783 55.636252 91.57785413 62.35986256 87.4375 69.8125 C83.80407836 73.07326301 79.57588278 74.43686447 75 76 C75.65226562 76.25652344 76.30453125 76.51304688 76.9765625 76.77734375 C83.92330018 79.82038371 87.56618654 83.23374027 91 90 C92.11817376 93.35452129 92.1202587 95.86418264 92.11352539 99.39916992 C92.11367142 100.04334366 92.11381744 100.6875174 92.1139679 101.35121155 C92.11327195 103.47766502 92.10549448 105.6040306 92.09765625 107.73046875 C92.09579094 109.20591687 92.09436757 110.68136561 92.09336853 112.15681458 C92.08955226 116.03825595 92.07972956 119.91965985 92.06866455 123.80108643 C92.05663178 128.45919775 92.05204395 133.11732161 92.04621124 137.77544403 C92.03651734 144.85032208 92.01735458 151.92511791 92 159 C79.13 159 66.26 159 53 159 C52.95101562 154.35421875 52.90203125 149.7084375 52.8515625 144.921875 C52.81617493 141.97784286 52.78021431 139.03384009 52.7421875 136.08984375 C52.68189104 131.41752334 52.62371206 126.74524401 52.578125 122.07275391 C52.54123683 118.30547664 52.49486748 114.53842424 52.44193649 110.77133942 C52.42341127 109.33448483 52.40829637 107.89758207 52.39665604 106.46065521 C52.37976235 104.44730677 52.34959317 102.43408299 52.31884766 100.42089844 C52.30552399 99.27506287 52.29220032 98.12922729 52.2784729 96.94866943 C51.99330162 93.11267676 51.99330162 93.11267676 50 90 C47.36 89.34 44.72 88.68 42 88 C42 111.43 42 134.86 42 159 C28.14 159 14.28 159 0 159 C0 106.53 0 54.06 0 0 Z M42 28 C42 38.89 42 49.78 42 61 C48.63019987 61.64715023 48.63019987 61.64715023 52 59 C53.56841077 54.2947677 53.30839195 49.55399567 53.375 44.625 C53.41238281 43.5834375 53.44976562 42.541875 53.48828125 41.46875 C53.56177011 35.25287879 53.56177011 35.25287879 50.8515625 29.7734375 C47.7105022 27.47188448 47.7105022 27.47188448 42 28 Z " fill="#000000" transform="translate(218,4)"/>
<path d="M0 0 C9.55685561 6.97913492 14.78532367 15.75627051 17.125 27.25 C17.4809934 30.16358864 17.62793518 33.06786488 17.7421875 36 C17.77972137 36.85142578 17.81725525 37.70285156 17.85592651 38.58007812 C18.28788075 49.57714204 18.27451586 60.58211333 18.25537109 71.5859375 C18.25000757 75.24483379 18.2553529 78.90360738 18.26171875 82.5625 C18.26563478 93.23047624 18.2082363 103.88847445 17.72265625 114.546875 C17.68967438 115.33239746 17.6566925 116.11791992 17.62271118 116.92724609 C17.0712631 127.27204297 14.39122804 136.59511325 7.125 144.25 C6.55007813 144.86488281 5.97515625 145.47976562 5.3828125 146.11328125 C-6.41266171 157.54167639 -21.24617946 157.71188878 -36.66015625 157.5234375 C-48.99584869 157.15135898 -58.68529255 153.11360841 -67.68359375 144.5234375 C-76.2076185 135.21290673 -78.18744531 124.14528041 -78.1496582 111.85986328 C-78.15476913 110.98035004 -78.15988007 110.10083679 -78.16514587 109.19467163 C-78.17891754 106.31981383 -78.17809454 103.44519913 -78.17578125 100.5703125 C-78.17967499 98.55068881 -78.18401104 96.53106593 -78.18876648 94.51144409 C-78.196202 90.29031717 -78.19595682 86.06927392 -78.19067383 81.84814453 C-78.18488266 76.46642464 -78.20181488 71.0850493 -78.2250185 65.70338631 C-78.23982346 61.53553296 -78.24061837 57.36776131 -78.23750877 53.19988632 C-78.23801858 51.2169616 -78.24319166 49.23403189 -78.25332069 47.25113297 C-78.32246132 31.82493445 -78.01841601 17.31758924 -67.05859375 5.25 C-50.05946941 -10.68453271 -19.52127796 -11.86841816 0 0 Z M-34.5431366 22.67919922 C-36.59436714 26.638543 -36.28406168 30.42429835 -36.24731445 34.8203125 C-36.25096512 35.78982849 -36.25461578 36.75934448 -36.25837708 37.75823975 C-36.26648508 40.96400451 -36.2528701 44.16926421 -36.23828125 47.375 C-36.23776267 49.60172526 -36.23828028 51.82845098 -36.23979187 54.05517578 C-36.23970214 58.72240023 -36.22926994 63.389452 -36.21118164 68.05664062 C-36.18849458 74.04236093 -36.18795029 80.02782886 -36.19469929 86.01358032 C-36.19803908 90.61175789 -36.19140895 95.2098778 -36.18157005 99.80804443 C-36.17771796 102.01527607 -36.17656988 104.22251411 -36.1781559 106.42974854 C-36.17852632 109.51318605 -36.16591269 112.59629873 -36.1496582 115.6796875 C-36.15213562 116.59409607 -36.15461304 117.50850464 -36.15716553 118.45062256 C-36.15008072 119.29175598 -36.14299591 120.1328894 -36.13569641 120.99951172 C-36.13364354 121.72806366 -36.13159067 122.4566156 -36.12947559 123.20724487 C-35.83611771 125.56212029 -35.03896368 127.19784924 -33.875 129.25 C-31.565 129.25 -29.255 129.25 -26.875 129.25 C-24.52659692 125.54342907 -24.43948214 121.79170758 -24.25830078 117.5300293 C-24.22070208 116.7785068 -24.18310337 116.02698431 -24.14436531 115.25268841 C-23.78205357 107.42567712 -23.72948104 99.60342596 -23.7421875 91.76953125 C-23.7415105 90.25794967 -23.74053721 88.7463682 -23.73928833 87.23478699 C-23.7378313 84.09962913 -23.73990146 80.96450015 -23.74462891 77.8293457 C-23.75033991 73.85275137 -23.74702568 69.87622437 -23.74105644 65.89963245 C-23.73740901 62.78943899 -23.73860817 59.67926098 -23.74118423 56.569067 C-23.74184122 55.10415323 -23.74106924 53.63923795 -23.73870468 52.17432594 C-22.70347211 36.02145996 -22.70347211 36.02145996 -26.875 21.25 C-30.09733484 20.77007779 -31.99747377 20.49816721 -34.5431366 22.67919922 Z " fill="#000000" transform="translate(402.875,7.75)"/>
<path d="M0 0 C20.13 0 40.26 0 61 0 C64.0035061 19.84439541 67.00334672 39.68933357 69.99648285 59.53529549 C71.38637007 68.75013157 72.77790866 77.96471262 74.17333984 87.17871094 C75.38961663 95.20978548 76.60279006 103.24132161 77.81224203 111.27342689 C78.45272046 115.52618018 79.09474857 119.77868643 79.74049377 124.03064346 C80.34840909 128.03383701 80.95216862 132.0376354 81.5527668 136.04193306 C81.77374944 137.51029922 81.9962406 138.97843929 82.22036552 140.44632912 C82.52661305 142.45359972 82.82686382 144.46178249 83.12683105 146.47000122 C83.29644096 147.59274508 83.46605087 148.71548893 83.64080048 149.87225533 C84 153 84 153 84 159 C69.81 159 55.62 159 41 159 C40.01 145.14 40.01 145.14 39 131 C34.38 131 29.76 131 25 131 C24.90912109 132.77503906 24.90912109 132.77503906 24.81640625 134.5859375 C24.73189304 136.18229814 24.64725065 137.77865195 24.5625 139.375 C24.52318359 140.14972656 24.48386719 140.92445313 24.44335938 141.72265625 C24.13200479 147.51864167 23.57903129 153.20968707 23 159 C9.14 159 -4.72 159 -19 159 C-19 147.53957639 -18.83941055 137.18798418 -17.25585938 126.01318359 C-17.0676433 124.62152209 -16.88048804 123.22971678 -16.69429016 121.83778381 C-16.19462277 118.12464421 -15.68048351 114.41364842 -15.16334724 110.70290709 C-14.62212562 106.80040542 -14.09475452 102.89603101 -13.5657959 98.99185181 C-12.56603845 91.62813638 -11.55416778 84.2661409 -10.53773069 76.90471137 C-9.16209894 66.93654946 -7.80560709 56.96578378 -6.4479351 46.99516296 C-4.3140706 31.32796168 -2.15501138 15.66434025 0 0 Z M31 43 C30.135733 49.63328393 29.28246397 56.26791868 28.43652344 62.90356445 C28.14798882 65.15681323 27.85701587 67.40975125 27.56347656 69.66235352 C27.13993019 72.9160252 26.72541171 76.17074491 26.3125 79.42578125 C26.18125732 80.41894852 26.05001465 81.41211578 25.91479492 82.43537903 C25.0926443 89.00689761 24.886254 95.37666544 25 102 C29.29 102 33.58 102 38 102 C37.35286941 90.2771821 36.41747131 78.5928766 35.32543945 66.90356445 C35.1476969 64.9830537 34.97430878 63.06213574 34.80493164 61.14086914 C34.55742974 58.33388147 34.29779179 55.52826329 34.03515625 52.72265625 C33.96112076 51.85931168 33.88708527 50.9959671 33.81080627 50.10646057 C33.61216035 48.0627405 33.31586329 46.02891161 33 44 C32.34 43.67 31.68 43.34 31 43 Z " fill="#000000" transform="translate(19,4)"/>
<path d="M0 0 C1.1439624 -0.01023193 2.2879248 -0.02046387 3.46655273 -0.03100586 C16.20746891 0.10040063 26.34802111 3.62131267 37.1875 10.125 C48.00452861 21.56014453 46.375 37.82438472 46.375 52.4375 C33.505 52.4375 20.635 52.4375 7.375 52.4375 C6.4375 41.5 6.4375 41.5 6.14868164 38.04711914 C6.06996826 37.15629639 5.99125488 36.26547363 5.91015625 35.34765625 C5.831604 34.43121338 5.75305176 33.51477051 5.67211914 32.57055664 C5.59629249 30.45786174 5.59629249 30.45786174 4.375 29.4375 C1.70441149 29.29634839 -0.94932238 29.39502893 -3.625 29.4375 C-5.57713895 35.89215299 -5.49609005 43.44312795 -3.625 49.875 C1.2111818 56.07135794 8.39158425 59.74613817 14.94506836 63.9050293 C20.99975491 67.77682712 26.72349962 71.99351496 32.375 76.4375 C33.138125 77.02144531 33.90125 77.60539062 34.6875 78.20703125 C40.51619492 82.92076748 45.47515378 88.75949878 46.92462158 96.2947998 C47.12980949 99.40530714 47.15536621 102.46139283 47.1015625 105.578125 C47.10305801 107.26684723 47.10305801 107.26684723 47.10458374 108.98968506 C47.09993038 111.35289628 47.08064016 113.71612006 47.04736328 116.07910156 C46.99994545 119.69165561 47.00628861 123.30127371 47.01953125 126.9140625 C47.008383 129.21876754 46.99416657 131.52346023 46.9765625 133.828125 C46.97929672 135.4407724 46.97929672 135.4407724 46.98208618 137.08599854 C46.84402157 144.38861744 45.68676574 147.72124379 40.83984375 153.16015625 C26.5622839 165.68497218 8.3257172 165.60826258 -9.625 164.4375 C-19.98167873 163.07207268 -30.87039301 157.74119051 -37.37890625 149.42578125 C-42.14860979 141.81518846 -43.76499784 133.83704567 -43.72265625 124.9453125 C-43.72015869 123.8639502 -43.71766113 122.78258789 -43.71508789 121.66845703 C-43.70598389 120.31349121 -43.69687988 118.95852539 -43.6875 117.5625 C-43.666875 113.23125 -43.64625 108.9 -43.625 104.4375 C-30.755 104.4375 -17.885 104.4375 -4.625 104.4375 C-4.25 117.6875 -4.25 117.6875 -4.14697266 121.84863281 C-4.1113623 122.93499023 -4.07575195 124.02134766 -4.0390625 125.140625 C-4.0076416 126.25083008 -3.9762207 127.36103516 -3.94384766 128.50488281 C-3.63710644 131.32615042 -3.08213775 133.0345009 -1.625 135.4375 C1.74900578 135.85475678 1.74900578 135.85475678 5.375 135.4375 C10.37175356 129.29732458 8.79598719 121.28254552 8.15234375 113.875 C5.88811169 103.21979032 -8.57627211 96.76471545 -17.01635742 91.18774414 C-30.15959215 82.47492796 -40.79842809 74.65225433 -44.625 58.4375 C-46.86147905 45.08118457 -47.31117754 27.4698189 -40.0625 15.375 C-29.82368537 2.22514984 -15.60872395 0.10863562 0 0 Z " fill="#000000" transform="translate(750.625,0.5625)"/>
<path d="M0 0 C13.2 0 26.4 0 40 0 C42.9375 19.75 42.9375 19.75 43.85913086 25.96777344 C44.10254591 27.59833057 44.34610699 29.22886592 44.58984375 30.859375 C44.77649597 32.12418701 44.77649597 32.12418701 44.96691895 33.41455078 C45.0886145 34.22617676 45.21031006 35.03780273 45.33569336 35.87402344 C45.4400621 36.57573669 45.54443085 37.27744995 45.65196228 38.00042725 C46.00344358 40.01978432 46.50287047 42.01148188 47 44 C48.98 29.48 50.96 14.96 53 0 C66.2 0 79.4 0 93 0 C93 37.95 93 75.9 93 115 C84.09 115 75.18 115 66 115 C65.67 94.21 65.34 73.42 65 52 C62.36 72.79 59.72 93.58 57 115 C50.4 115 43.8 115 37 115 C34.36 96.19 31.72 77.38 29 58 C28.34 76.81 27.68 95.62 27 115 C18.09 115 9.18 115 0 115 C0 77.05 0 39.1 0 0 Z " fill="#000000" transform="translate(360,202)"/>
<path d="M0 0 C13.86 0 27.72 0 42 0 C42 52.47 42 104.94 42 159 C28.14 159 14.28 159 0 159 C0 106.53 0 54.06 0 0 Z " fill="#000000" transform="translate(651,4)"/>
<path d="M0 0 C0.74378906 0.4125 1.48757812 0.825 2.25390625 1.25 C8.44509409 5.26344037 11.87704522 11.20852716 13.55078125 18.35009766 C13.98606026 20.9177707 14.1144343 23.26268338 14.09765625 25.86328125 C14.09515869 26.66290283 14.09266113 27.46252441 14.09008789 28.28637695 C14.08098389 29.28499756 14.07187988 30.28361816 14.0625 31.3125 C14.041875 34.509375 14.02125 37.70625 14 41 C4.1 41 -5.8 41 -16 41 C-16.4375 32.375 -16.4375 32.375 -16.56811523 29.69287109 C-16.79688305 25.39513158 -17.18432453 21.23602893 -18 17 C-19.65 17 -21.3 17 -23 17 C-24.10898954 20.57430513 -24.12689532 23.90386607 -24.12939453 27.6328125 C-24.13114685 28.29021423 -24.13289917 28.94761597 -24.13470459 29.62493896 C-24.13909525 31.79165306 -24.13619494 33.95828511 -24.1328125 36.125 C-24.13348634 37.6342775 -24.13445704 39.1435549 -24.13571167 40.65283203 C-24.13718487 43.81348709 -24.13504622 46.97411386 -24.13037109 50.13476562 C-24.12467403 54.183342 -24.12795505 58.23185208 -24.13394356 62.28042603 C-24.13755936 65.3962453 -24.13640589 68.5120489 -24.13381577 71.62786865 C-24.13314932 73.1205852 -24.13396506 74.61330319 -24.13629532 76.10601807 C-24.13883854 78.19311284 -24.13495771 80.28010067 -24.12939453 82.3671875 C-24.12859894 83.55425293 -24.12780334 84.74131836 -24.12698364 85.96435547 C-24.02066875 88.50589709 -23.74928339 90.58503812 -23 93 C-21.33388095 93.042721 -19.66617115 93.04063832 -18 93 C-16.32352563 91.32352563 -16.65361923 89.17415464 -16.46484375 86.87109375 C-16.37783203 85.83662109 -16.29082031 84.80214844 -16.20117188 83.73632812 C-16.11416016 82.64771484 -16.02714844 81.55910156 -15.9375 80.4375 C-15.84662109 79.34501953 -15.75574219 78.25253906 -15.66210938 77.12695312 C-15.43737189 74.41827508 -15.21685911 71.70931834 -15 69 C-16.98 69 -18.96 69 -21 69 C-21 63.06 -21 57.12 -21 51 C-9.45 51 2.1 51 14 51 C14 71.46 14 91.92 14 113 C7.73 113 1.46 113 -5 113 C-5.99 111.02 -6.98 109.04 -8 107 C-9.36125 108.175625 -9.36125 108.175625 -10.75 109.375 C-17.15420712 114.90590615 -23.92486195 114.77209006 -32.04248047 114.25146484 C-36.62083769 113.66332467 -40.24202956 111.54739894 -44 109 C-44.928125 108.443125 -45.85625 107.88625 -46.8125 107.3125 C-52.98921616 100.78282863 -55.11813704 92.89642727 -55.14526367 84.15527344 C-55.14862228 83.47503616 -55.1519809 82.79479889 -55.15544128 82.09394836 C-55.16492554 79.84907189 -55.16689336 77.60427026 -55.16796875 75.359375 C-55.17118392 73.79241913 -55.17454818 72.22546355 -55.17805481 70.6585083 C-55.18404036 67.37340601 -55.18589538 64.08833001 -55.18530273 60.80322266 C-55.18520134 56.60926291 -55.19883302 52.41547331 -55.21607494 48.2215538 C-55.22723762 44.9837569 -55.22922061 41.74600051 -55.22869301 38.50818634 C-55.22986749 36.96294826 -55.23425916 35.41770894 -55.24202538 33.87248993 C-55.33816942 12.76071405 -55.33816942 12.76071405 -47.53515625 4.4375 C-35.63920319 -6.75869111 -14.09865104 -7.92894259 0 0 Z " fill="#000000" transform="translate(153,204)"/>
<path d="M0 0 C6.1055471 -0.02464513 12.21106551 -0.04283371 18.31665039 -0.05493164 C20.39543156 -0.05997288 22.47420916 -0.06680574 24.55297852 -0.07543945 C27.53402586 -0.08751422 30.51502649 -0.09323024 33.49609375 -0.09765625 C34.89921059 -0.10539818 34.89921059 -0.10539818 36.33067322 -0.11329651 C37.19149002 -0.11337204 38.05230682 -0.11344757 38.93920898 -0.11352539 C40.08171364 -0.11685631 40.08171364 -0.11685631 41.24729919 -0.12025452 C43 0 43 0 44 1 C44.28768337 2.35472817 44.51960553 3.7213739 44.72767639 5.09059143 C44.86367752 5.97230515 44.99967865 6.85401886 45.13980103 7.76245117 C45.28581757 8.73746582 45.43183411 9.71248047 45.58227539 10.71704102 C45.73847855 11.73821518 45.8946817 12.75938934 46.05561829 13.81150818 C46.57393842 17.20833461 47.08604303 20.60606363 47.59765625 24.00390625 C47.95475762 26.35988751 48.31205487 28.71583909 48.66954041 31.07176208 C49.41963919 36.02211066 50.16653348 40.97293035 50.91137695 45.92407227 C51.86512585 52.26134796 52.82795633 58.59720485 53.79338932 64.93270969 C54.53445506 69.8040534 55.27002653 74.67621495 56.00402641 79.54862785 C56.35663419 81.88401919 56.71108678 84.21913277 57.0674305 86.55395699 C57.56633048 89.82754529 58.05765868 93.10218612 58.54711914 96.37719727 C58.69515991 97.3380423 58.84320068 98.29888733 58.99572754 99.28884888 C59.1954995 100.6410276 59.1954995 100.6410276 59.39930725 102.02052307 C59.57434328 103.180034 59.57434328 103.180034 59.75291538 104.3629694 C60.08377879 107.89413596 60 111.45336669 60 115 C49.77 115 39.54 115 29 115 C28.67 108.4 28.34 101.8 28 95 C24.7 95 21.4 95 18 95 C17.34 101.6 16.68 108.2 16 115 C5.77 115 -4.46 115 -15 115 C-15 105.99981168 -15 105.99981168 -14.47523499 102.10990906 C-14.35888199 101.2281752 -14.24252899 100.34644135 -14.12265015 99.43798828 C-13.99331085 98.49898682 -13.86397156 97.55998535 -13.73071289 96.5925293 C-13.52829735 95.07644829 -13.52829735 95.07644829 -13.3217926 93.52973938 C-12.87725093 90.21051383 -12.42512605 86.89237209 -11.97265625 83.57421875 C-11.66079057 81.26118474 -11.34930839 78.948099 -11.03819275 76.63496399 C-10.38658363 71.79875247 -9.73140469 66.96304271 -9.07348633 62.12768555 C-8.2294042 55.9230954 -7.39260747 49.71755002 -6.55825138 43.51164532 C-5.91630768 38.74079799 -5.27136817 33.97035963 -4.62542534 29.20005226 C-4.31569526 26.91115034 -4.00670894 24.62214766 -3.69847298 22.33304405 C-3.26813381 19.14179005 -2.83396877 15.9510804 -2.39868164 12.76049805 C-2.27136658 11.81137543 -2.14405151 10.86225281 -2.01287842 9.8843689 C-1.8937056 9.01673416 -1.77453278 8.14909943 -1.65174866 7.25517273 C-1.54942964 6.50139689 -1.44711061 5.74762106 -1.34169102 4.97100353 C-1 3 -1 3 0 0 Z M22 31 C21.28639423 36.80222221 20.57435037 42.60463312 19.86376953 48.40722656 C19.62168891 50.38221451 19.37917742 52.35714969 19.13623047 54.33203125 C18.78760992 57.16652977 18.44052648 60.00121286 18.09375 62.8359375 C17.9843811 63.72243988 17.87501221 64.60894226 17.7623291 65.52230835 C17.61217346 66.753358 17.61217346 66.753358 17.45898438 68.00927734 C17.37015991 68.73319672 17.28133545 69.45711609 17.18981934 70.20297241 C16.96498493 72.03031831 16.96498493 72.03031831 17 74 C20.3 74 23.6 74 27 74 C26.36026873 59.59501647 24.67008352 45.3158994 23 31 C22.67 31 22.34 31 22 31 Z " fill="#000000" transform="translate(241,202)"/>
<path d="M0 0 C1.7015625 0.86625 1.7015625 0.86625 3.4375 1.75 C8.04543782 5.79599418 10.14366876 10.98889048 11 17 C11.11212513 19.93940893 11.09429867 22.87154548 11.0625 25.8125 C11.041875 28.514375 11.02125 31.21625 11 34 C1.76 34 -7.48 34 -17 34 C-17.66 28.39 -18.32 22.78 -19 17 C-20.65 17 -22.3 17 -24 17 C-25.2866645 19.573329 -25.16824551 21.50223038 -25.1875 24.375 C-25.20876953 25.80972656 -25.20876953 25.80972656 -25.23046875 27.2734375 C-24.98547878 30.17179336 -24.52079181 31.54970356 -23 34 C-21.07015885 35.60606064 -21.07015885 35.60606064 -18.74609375 36.98828125 C-17.89080078 37.53033203 -17.03550781 38.07238281 -16.15429688 38.63085938 C-15.25775391 39.18580078 -14.36121094 39.74074219 -13.4375 40.3125 C7.9806837 53.69688018 7.9806837 53.69688018 12.25 65.4375 C14.73727857 77.25207322 15.87386619 91.39061999 10.25 102.4375 C4.17483029 109.35644328 -2.12524333 113.36033116 -11.49267578 114.23193359 C-14.35195651 114.39221511 -17.19898785 114.46626377 -20.0625 114.5 C-20.98417969 114.51844971 -21.90585937 114.53689941 -22.85546875 114.5559082 C-31.80909616 114.47539571 -40.00058513 111.69719815 -47 106 C-53.95256373 98.60200739 -54.31924422 89.64541334 -54.125 79.9375 C-54.08375 76.988125 -54.0425 74.03875 -54 71 C-44.76 71 -35.52 71 -26 71 C-25.5625 79.1875 -25.5625 79.1875 -25.43188477 81.73901367 C-25.21603686 85.57818584 -24.89541617 89.24527168 -24 93 C-22.02 93 -20.04 93 -18 93 C-16.53769785 90.07539571 -16.79091273 87.44347176 -16.75 84.1875 C-16.71132813 82.35251953 -16.71132813 82.35251953 -16.671875 80.48046875 C-17.03440849 76.63502426 -17.5994852 74.99440516 -20 72 C-22.08046289 70.31122044 -24.10132404 68.80318724 -26.3125 67.3125 C-26.92407959 66.88533691 -27.53565918 66.45817383 -28.16577148 66.01806641 C-31.37334382 63.77976813 -34.61154601 61.58944619 -37.859375 59.41015625 C-46.60164793 53.47306114 -52.06711415 48.78916643 -54.59423828 38.19873047 C-55.27557117 34.50674249 -55.34019799 30.87105212 -55.3125 27.125 C-55.30758545 26.33706055 -55.3026709 25.54912109 -55.29760742 24.73730469 C-55.14551503 17.1654435 -53.97598304 11.17354852 -49.9375 4.6875 C-37.51134968 -6.68110561 -14.52762418 -7.939195 0 0 Z " fill="#000000" transform="translate(686,204)"/>
<path d="M0 0 C16.83 0 33.66 0 51 0 C51 7.92 51 15.84 51 24 C44.4 24 37.8 24 31 24 C31 30.6 31 37.2 31 44 C36.94 44 42.88 44 49 44 C49 51.59 49 59.18 49 67 C43.06 67 37.12 67 31 67 C31 74.92 31 82.84 31 91 C38.26 91 45.52 91 53 91 C53 98.92 53 106.84 53 115 C35.51 115 18.02 115 0 115 C0 77.05 0 39.1 0 0 Z " fill="#000000" transform="translate(518,202)"/>
</svg>
